<svg width="250" height="250" viewBox="0 0 250 250" fill="none" xmlns="http://www.w3.org/2000/svg">
<circle cx="217" cy="206" r="23.5" stroke="black" stroke-width="3"/>
<mask id="path-2-inside-1_0_1" fill="white">
<path d="M242 67C242 63.717 241.353 60.4661 240.097 57.4329C238.841 54.3998 236.999 51.6438 234.678 49.3223C232.356 47.0009 229.6 45.1594 226.567 43.903C223.534 42.6466 220.283 42 217 42C213.717 42 210.466 42.6466 207.433 43.903C204.4 45.1594 201.644 47.0009 199.322 49.3223C197.001 51.6438 195.159 54.3998 193.903 57.4329C192.647 60.4661 192 63.717 192 67L195.016 67C195.016 64.1131 195.585 61.2544 196.69 58.5872C197.794 55.92 199.414 53.4965 201.455 51.4551C203.497 49.4138 205.92 47.7944 208.587 46.6897C211.254 45.5849 214.113 45.0162 217 45.0162C219.887 45.0162 222.746 45.5849 225.413 46.6897C228.08 47.7944 230.503 49.4138 232.545 51.4551C234.586 53.4965 236.206 55.92 237.31 58.5872C238.415 61.2544 238.984 64.1131 238.984 67H242Z"/>
</mask>
<path d="M242 67C242 63.717 241.353 60.4661 240.097 57.4329C238.841 54.3998 236.999 51.6438 234.678 49.3223C232.356 47.0009 229.6 45.1594 226.567 43.903C223.534 42.6466 220.283 42 217 42C213.717 42 210.466 42.6466 207.433 43.903C204.4 45.1594 201.644 47.0009 199.322 49.3223C197.001 51.6438 195.159 54.3998 193.903 57.4329C192.647 60.4661 192 63.717 192 67L195.016 67C195.016 64.1131 195.585 61.2544 196.69 58.5872C197.794 55.92 199.414 53.4965 201.455 51.4551C203.497 49.4138 205.92 47.7944 208.587 46.6897C211.254 45.5849 214.113 45.0162 217 45.0162C219.887 45.0162 222.746 45.5849 225.413 46.6897C228.08 47.7944 230.503 49.4138 232.545 51.4551C234.586 53.4965 236.206 55.92 237.31 58.5872C238.415 61.2544 238.984 64.1131 238.984 67H242Z" stroke="black" stroke-width="6" mask="url(#path-2-inside-1_0_1)"/>
<line x1="23" y1="229.5" x2="217" y2="229.5" stroke="black" stroke-width="3"/>
<line x1="23" y1="65.5" x2="45" y2="65.5" stroke="black" stroke-width="3"/>
<line x1="181" y1="65.5" x2="194" y2="65.5" stroke="black" stroke-width="3"/>
<line x1="240.5" y1="67" x2="240.5" y2="207" stroke="black" stroke-width="3"/>
<line x1="193.5" y1="66" x2="193.5" y2="207" stroke="black" stroke-width="3"/>
<line x1="24.5" y1="66" x2="24.5" y2="230" stroke="black" stroke-width="3"/>
<path d="M113.678 8.00294C128.386 8.125 142.675 12.2148 154.518 19.6924C166.36 27.17 175.153 37.6552 179.649 49.6592C184.145 61.6633 184.116 74.5766 179.564 86.5654C175.013 98.5543 166.172 109.01 154.295 116.447L154.117 116.238C146.774 120.515 141.371 124.417 136.84 129.032C131.985 133.977 128.07 139.807 123.865 147.935C115.542 164.024 114.224 182.263 114.542 193.959L114.457 193.961C114.456 193.988 114.457 194.014 114.456 194.041L113 194.001L111.544 194.041C111.543 194.014 111.543 193.988 111.542 193.961L111.458 193.959C111.776 182.263 110.458 164.024 102.135 147.935C97.9299 139.807 94.0146 133.977 89.1601 129.032C84.4018 124.185 78.6803 120.126 70.7607 115.592L70.6191 115.753L69.5302 115.029C58.3786 107.456 50.1743 97.1431 46.0283 85.458C41.8823 73.7729 41.9992 61.2911 46.3437 49.6787L46.7773 48.5576C51.3947 37.003 60.0117 26.9402 71.4638 19.7041L72.581 19.0127C84.59 11.733 98.9697 7.88096 113.678 8.00294ZM113.644 10.9434C99.6571 10.8274 85.982 14.491 74.5615 21.4141L73.499 22.0713C62.6083 28.9527 54.4134 38.5225 50.0224 49.5107L49.6103 50.5762C45.4786 61.6196 45.3676 73.49 49.3105 84.6025C53.259 95.7309 61.0785 105.55 71.707 112.755L71.7412 112.696C80.0431 117.416 86.1694 121.703 91.3007 126.931C96.4358 132.162 100.512 138.27 104.799 146.556C109.132 154.933 111.628 163.833 113 172.129C114.372 163.833 116.867 154.933 121.201 146.556C125.487 138.27 129.564 132.162 134.699 126.931C139.831 121.703 145.957 117.416 154.259 112.696L154.292 112.755C164.227 106.02 171.723 96.9906 175.885 86.7207L176.303 85.6553C180.496 74.6103 180.653 62.7406 176.771 51.6309L176.383 50.5586C172.107 39.1427 163.744 29.1708 152.482 22.0596C141.221 14.9487 127.631 11.0594 113.644 10.9434Z" fill="black"/>
<path d="M142.5 27L145.525 42.4324L157 46.5L145.525 50.5676L142.5 66L139.475 50.5676L128 46.5L139.475 42.4324L142.5 27Z" fill="#006C0D"/>
<path d="M85.5 70L88.5246 85.4324L100 89.5L88.5246 93.5676L85.5 109L82.4754 93.5676L71 89.5L82.4754 85.4324L85.5 70Z" fill="#0D00C7"/>
<path d="M127.5 70L130.525 85.4324L142 89.5L130.525 93.5676L127.5 109L124.475 93.5676L113 89.5L124.475 85.4324L127.5 70Z" fill="#DEDA00"/>
<path d="M95.5 27L98.5246 42.4324L110 46.5L98.5246 50.5676L95.5 66L92.4754 50.5676L81 46.5L92.4754 42.4324L95.5 27Z" fill="#A202FF"/>
</svg>
